# xmcd
#
# Track frame offsets:
#	150
#	16575
#	35925
#	51672
#	66740
#	82367
#	102152
#	120429
#	136077
#	154330
#	172292
#	191670
#	212597
#	226450
#	242297
#
# Disc length: 3416 seconds
#
# Revision: 1
# Processed by: cddbd v1.5.1PL2 Copyright (c) Steve Scherf et al.
# Submitted via: audiograbber 1.83.01
#
DISCID=db0d560f
DTITLE=Sound Choice - SC8228
DYEAR=1900
DGENRE=Karaoke Country
TTITLE0=Ketchum, Hal - Tonight We Just Might Fall In Love Again
TTITLE1=Mcentire, Reba - I Won'T Stand In Line
TTITLE2=Morgan, Lorrie - Out Of Your Shoes
TTITLE3=Raye, Collin - That Was A River
TTITLE4=Brooks, Garth - Hard Luck Woman
TTITLE5=Carter, Carlene - Sweetest Thing, The
TTITLE6=Stuart, Marty - That'S What Love'S About
TTITLE7=Byrd, Tracy - Why Don'T That Telephone Ring
TTITLE8=Supernaw, Doug - Red And Rio Grande
TTITLE9=Tillis, Pam - Blue Rose Is 
TTITLE10=Brooks, Garth - Wolves
TTITLE11=Mattea, Kathy - Asking Us To Dance
TTITLE12=Allen, Deborah - Break These Chains
TTITLE13=Gibson Miller Band - Red, White And Blue Collar
TTITLE14=Tucker, Tanya - Without You What Do I Do With Me 
EXTD=
EXTT0=
EXTT1=
EXTT2=
EXTT3=
EXTT4=
EXTT5=
EXTT6=
EXTT7=
EXTT8=
EXTT9=
EXTT10=
EXTT11=
EXTT12=
EXTT13=
EXTT14=
PLAYORDER=
